<?xml version="1.0" encoding="UTF-8" standalone="no"?>
<!DOCTYPE svg PUBLIC "-//W3C//DTD SVG 1.1//EN" "http://www.w3.org/Graphics/SVG/1.1/DTD/svg11.dtd">
<svg xmlns="http://www.w3.org/2000/svg" xmlns:xlink="http://www.w3.org/1999/xlink" version="1.1" height="100px"  viewBox="0 0 841.9 595.3">
<g enable-background="new">
<clipPath id="cp0">
<path transform="matrix(1,0,0,-1,8.5039,620.504)" d="M -9 -9 L 801 -9 L 801 621 L -9 621 Z " fill-rule="evenodd"/>
</clipPath>
<g clip-path="url(#cp0)">
<g id="Layer-1" data-name="Layer 1">
<path transform="matrix(1,0,0,-1,8.5039,620.504)" d="M 397.135 269.539 C 399.274 269.539 400.849 271.003 400.849 273.141 C 400.849 275.279 399.274 276.743 397.135 276.743 L 369.336 276.743 L 369.336 303.979 L 393.084 303.979 C 395.222 303.979 396.798 305.442 396.798 307.58 C 396.798 309.718 395.222 311.182 393.084 311.182 L 369.336 311.182 L 369.336 334.704 L 394.997 334.704 C 397.135 334.704 398.711 336.28 398.711 338.418 C 398.711 340.556 397.135 341.907 394.997 341.907 L 365.622 341.907 C 363.484 341.907 361.908 340.556 361.908 338.418 L 361.908 273.141 C 361.908 271.003 363.484 269.539 365.622 269.539 Z M 439.903 283.72 C 439.903 300.602 413.455 298.464 413.455 308.255 C 413.455 313.433 418.407 315.008 423.359 315.008 C 427.523 315.008 430.787 313.658 432.475 312.87 C 433.263 312.532 434.051 312.42 434.726 312.42 C 436.639 312.42 438.215 313.77 438.215 315.908 C 438.215 317.484 437.54 318.497 436.414 319.06 C 434.276 320.298 429.436 322.211 423.359 322.211 C 414.918 322.211 405.802 317.934 405.802 308.255 C 405.802 291.936 432.25 294.187 432.25 283.72 C 432.25 277.53 427.073 276.067 421.896 276.067 C 415.593 276.067 410.416 279.218 409.403 279.894 C 408.84 280.231 408.277 280.456 407.265 280.456 C 405.464 280.456 403.663 278.993 403.663 276.968 C 403.663 275.279 404.338 274.379 405.351 273.591 C 406.139 273.028 413.004 268.864 421.896 268.864 C 432.588 268.864 439.903 275.617 439.903 283.72 Z M 484.021 273.478 C 485.034 274.154 485.934 275.392 485.934 276.63 C 485.934 278.881 484.134 280.344 482.333 280.344 C 481.77 280.344 480.982 280.231 480.42 279.894 C 476.368 277.643 471.416 276.067 467.027 276.067 C 455.772 276.067 450.933 286.084 450.933 295.763 C 450.933 306.68 458.698 315.008 469.165 315.008 C 472.654 315.008 476.368 313.883 479.407 311.744 C 480.082 311.294 480.757 311.182 481.432 311.182 C 483.458 311.182 485.034 312.757 485.034 314.783 C 485.034 316.134 484.471 317.372 483.458 317.934 C 479.294 320.636 474.117 322.211 469.165 322.211 C 454.647 322.211 443.279 310.732 443.279 295.763 C 443.279 279.669 452.958 268.864 467.027 268.864 C 472.879 268.864 479.069 270.777 484.021 273.478 Z M 492.687 273.253 C 492.687 271.115 494.263 269.539 496.401 269.539 C 498.54 269.539 500.116 271.115 500.116 273.253 L 500.116 293.624 C 500.116 312.87 509.457 315.008 513.734 315.008 C 515.197 315.008 516.998 314.333 518.348 314.333 C 520.824 314.333 521.949 315.796 521.949 317.934 C 521.949 321.649 516.21 322.211 513.734 322.211 C 506.306 322.211 501.016 316.471 500.003 312.645 L 500.003 317.934 C 500.003 320.073 498.54 321.536 496.401 321.536 C 494.263 321.536 492.687 320.073 492.687 317.934 Z M 543.784 268.864 C 557.739 268.864 566.406 279.106 566.406 295.425 C 566.406 311.519 557.177 322.211 543.784 322.211 C 530.278 322.211 521.049 311.519 521.049 295.425 C 521.049 279.669 530.278 268.864 543.784 268.864 Z M 543.784 276.067 C 534.442 276.067 528.702 283.833 528.702 295.425 C 528.702 307.355 534.555 315.008 543.784 315.008 C 553.012 315.008 558.752 307.467 558.752 295.425 C 558.752 283.495 553.237 276.067 543.784 276.067 Z M 637.648 317.822 C 637.648 319.848 636.41 321.536 634.046 321.536 C 631.908 321.536 630.67 320.185 630.332 318.61 C 630.22 318.047 623.805 290.135 619.415 278.318 C 616.377 286.871 609.174 312.082 607.598 318.159 C 607.148 319.96 605.572 321.536 603.209 321.536 C 600.733 321.536 599.157 319.96 598.707 318.159 C 597.131 312.082 589.928 286.871 586.889 278.318 C 582.5 290.135 576.085 318.159 575.972 318.722 C 575.635 320.298 574.509 321.536 572.371 321.536 C 569.895 321.536 568.657 319.96 568.657 317.934 C 568.657 317.484 568.769 316.584 568.882 316.021 C 570.457 309.268 579.124 276.968 582.05 271.903 C 583.175 269.989 585.088 269.539 587.002 269.539 C 588.578 269.539 590.491 269.989 591.616 272.015 C 593.529 275.617 601.745 299.814 603.209 308.931 C 604.672 299.814 612.887 275.617 614.801 272.015 C 615.926 269.764 617.952 269.539 619.415 269.539 C 621.441 269.539 623.354 270.327 624.367 271.903 C 627.294 277.08 635.847 309.268 637.423 316.021 C 637.535 316.584 637.648 317.372 637.648 317.822 " fill="#0a2e64"/>
<path transform="matrix(1,0,0,-1,8.5039,620.504)" d="M 208.638 338.849 C 208.331 337.393 207.426 336.667 205.96 336.667 L 178.57 336.667 L 173.604 312.536 L 195.459 312.536 C 196.923 312.536 197.493 311.78 197.203 310.341 L 196.074 304.886 C 195.763 303.423 194.845 302.699 193.396 302.699 L 171.548 302.726 L 164.819 270.07 C 164.501 268.62 163.652 267.864 162.255 267.897 L 152.72 267.897 C 151.171 267.897 150.533 268.62 150.855 270.093 L 166.211 344.317 C 166.509 345.79 167.419 346.523 168.893 346.523 L 208.01 346.48 C 209.503 346.48 210.067 345.777 209.786 344.294 Z " fill="#0d2e64"/>
<path transform="matrix(1,0,0,-1,8.5039,620.504)" d="M 270.889 315.64 C 270.703 314.913 270.457 314.422 270.136 314.168 C 269.809 313.917 269.443 313.755 268.998 313.732 C 268.555 313.695 268.079 313.732 267.571 313.835 C 267.062 313.947 266.56 314.01 266.058 314.01 C 259.038 314.01 254.759 310.49 253.289 303.424 L 245.893 269.655 C 245.572 268.159 244.714 267.452 243.312 267.452 L 234.462 267.472 C 232.903 267.472 232.293 268.183 232.596 269.655 L 241.102 308.996 C 241.627 311.328 241.64 312.999 241.221 313.973 C 240.759 314.954 240.147 315.443 239.412 315.443 L 239.184 315.443 C 237.718 315.456 237.12 316.169 237.447 317.628 L 238.408 322.462 C 238.732 323.892 239.613 324.638 241.102 324.638 L 241.756 324.638 C 246.335 324.624 249.528 324.077 251.319 322.961 C 253.065 321.888 253.97 320.313 253.996 318.268 L 254.221 318.268 C 256.598 320.828 259.038 322.657 261.561 323.799 C 264.06 324.899 267.23 325.474 271.084 325.474 C 271.813 325.474 272.305 325.408 272.556 325.268 C 272.801 325.097 272.85 324.638 272.642 323.823 Z " fill="#0d2e64"/>
<path transform="matrix(1,0,0,-1,8.5039,620.504)" d="M 314.51 314.303 C 314.176 313.802 313.734 313.583 313.196 313.693 C 312.661 313.815 312.113 313.927 311.608 314.085 C 309.733 314.832 307.797 315.456 305.853 315.995 C 303.909 316.546 301.742 316.823 299.361 316.823 C 296.059 316.823 293.513 316.169 291.833 314.872 C 290.089 313.547 288.98 311.837 288.508 309.711 C 288.276 308.492 288.412 307.389 288.877 306.462 C 289.406 305.508 290.364 304.817 291.81 304.368 L 303.98 300.657 C 308.488 299.264 311.363 297.233 312.661 294.528 C 313.915 291.844 314.121 288.375 313.252 284.154 C 312.625 281.169 311.44 278.584 309.733 276.421 C 307.986 274.229 305.929 272.377 303.492 270.887 C 301.049 269.405 298.391 268.275 295.471 267.566 C 292.543 266.842 289.564 266.486 286.543 266.486 C 284.195 266.486 281.937 266.634 279.856 266.935 C 277.766 267.219 275.882 267.612 274.161 268.094 C 272.441 268.566 271.053 269.118 269.954 269.775 C 268.848 270.425 268.093 271.115 267.699 271.848 C 267.181 272.803 267.3 273.747 268.099 274.698 L 271.215 278.168 C 271.589 278.524 272.065 278.733 272.642 278.677 C 273.19 278.64 273.653 278.524 274.105 278.412 C 276.119 277.666 278.222 277.041 280.418 276.487 C 282.597 275.919 285.051 275.665 287.8 275.651 C 290.083 275.651 292.002 275.872 293.513 276.299 C 295.052 276.738 296.317 277.296 297.251 277.996 C 298.179 278.703 298.859 279.459 299.331 280.376 C 299.78 281.208 300.127 282.097 300.319 282.975 C 300.656 284.633 300.273 285.93 299.197 286.835 C 298.093 287.763 296.076 288.718 293.1 289.754 L 284.084 292.591 C 280.253 293.852 277.704 295.866 276.449 298.716 C 275.175 301.569 274.947 304.794 275.66 308.436 C 276.212 310.916 277.113 313.205 278.44 315.364 C 279.759 317.51 281.449 319.386 283.495 320.973 C 285.559 322.588 287.967 323.82 290.72 324.686 C 293.487 325.553 296.541 325.989 299.949 325.989 C 304.671 325.989 308.676 325.405 311.915 324.249 C 315.154 323.071 317.278 321.889 318.219 320.64 C 318.351 320.419 318.443 320.096 318.559 319.637 C 318.637 319.211 318.32 318.6 317.598 317.8 Z " fill="#0d2e64"/>
<path transform="matrix(1,0,0,-1,8.5039,620.504)" d="M 355.433 324.542 L 348.231 324.542 L 351.728 341.906 L 336.827 334.359 L 334.921 324.542 L 329.166 324.542 C 327.683 324.542 326.759 323.821 326.472 322.382 L 325.547 318.133 C 325.223 316.637 325.804 315.917 327.284 315.917 L 333.048 315.917 L 326.65 284.8 C 325.48 279.031 325.891 274.782 327.938 271.975 C 329.975 269.152 333.508 267.749 338.524 267.749 L 343.724 267.749 C 345.124 267.749 345.997 268.485 346.29 269.948 L 347.27 274.745 C 347.601 276.196 347.003 276.911 345.513 276.911 L 343.671 276.928 C 342.397 276.928 341.337 277.506 340.445 278.675 C 339.557 279.848 339.38 281.756 339.93 284.459 L 346.362 315.894 L 353.555 315.894 C 355.027 315.894 355.947 316.624 356.245 318.096 L 357.172 322.349 C 357.519 323.812 356.909 324.532 355.433 324.542 " fill="#0d2e64"/>
<path transform="matrix(1,0,0,-1,8.5039,620.504)" d="M 229.817 334.967 C 229.489 333.531 228.651 332.808 227.264 332.808 L 218.471 332.817 C 216.949 332.817 216.319 333.531 216.619 334.977 L 218.501 343.664 C 218.815 345.087 219.697 345.8 221.165 345.8 L 229.955 345.8 C 231.405 345.8 232.006 345.087 231.679 343.641 Z M 218.636 282.843 C 218.085 280.158 218.009 278.254 218.452 277.1 C 218.825 275.919 219.416 275.36 220.152 275.36 L 220.366 275.36 C 221.826 275.36 222.414 274.621 222.09 273.188 L 221.139 268.437 C 220.822 266.98 219.976 266.247 218.577 266.247 L 217.92 266.247 C 207.297 266.274 203.097 271.554 205.3 282.09 L 213.984 321.994 C 214.261 323.443 215.159 324.166 216.645 324.166 L 225.425 324.166 C 226.911 324.166 227.479 323.443 227.164 321.985 Z " fill="#0d2e64"/>
<path transform="matrix(1,0,0,-1,8.5039,620.504)" d="M 494.918 236.391 C 494.918 235.655 495.461 235.112 496.198 235.112 C 496.934 235.112 497.477 235.655 497.477 236.391 L 497.477 246.975 L 505.657 246.975 C 506.394 246.975 506.937 247.479 506.937 248.216 C 506.937 248.953 506.394 249.457 505.657 249.457 L 497.477 249.457 L 497.477 257.56 L 506.316 257.56 C 507.053 257.56 507.596 258.102 507.596 258.839 C 507.596 259.576 507.053 260.041 506.316 260.041 L 496.198 260.041 C 495.461 260.041 494.918 259.576 494.918 258.839 Z M 512.442 236.391 C 512.442 235.655 512.985 235.112 513.721 235.112 C 514.458 235.112 515.001 235.655 515.001 236.391 L 515.001 251.744 C 515.001 252.481 514.458 253.024 513.721 253.024 C 512.985 253.024 512.442 252.481 512.442 251.744 Z M 512.442 257.598 C 512.442 256.862 512.985 256.319 513.721 256.319 C 514.458 256.319 515.001 256.862 515.001 257.598 L 515.001 258.916 C 515.001 259.653 514.458 260.196 513.721 260.196 C 512.985 260.196 512.442 259.653 512.442 258.916 Z M 520.778 236.391 C 520.778 235.655 521.32 235.112 522.057 235.112 C 522.794 235.112 523.336 235.655 523.336 236.391 L 523.336 243.408 C 523.336 250.038 526.554 250.775 528.028 250.775 C 528.532 250.775 529.152 250.542 529.617 250.542 C 530.47 250.542 530.858 251.046 530.858 251.783 C 530.858 253.062 528.88 253.256 528.028 253.256 C 525.469 253.256 523.647 251.279 523.298 249.961 L 523.298 251.783 C 523.298 252.52 522.794 253.024 522.057 253.024 C 521.32 253.024 520.778 252.52 520.778 251.783 Z M 545.745 239.997 C 545.745 245.812 536.635 245.075 536.635 248.449 C 536.635 250.232 538.341 250.775 540.046 250.775 C 541.481 250.775 542.605 250.31 543.187 250.038 C 543.458 249.922 543.73 249.883 543.962 249.883 C 544.621 249.883 545.164 250.348 545.164 251.085 C 545.164 251.628 544.931 251.977 544.544 252.171 C 543.807 252.597 542.14 253.256 540.046 253.256 C 537.139 253.256 533.998 251.783 533.998 248.449 C 533.998 242.827 543.109 243.602 543.109 239.997 C 543.109 237.864 541.326 237.36 539.542 237.36 C 537.371 237.36 535.588 238.446 535.239 238.679 C 535.045 238.795 534.851 238.872 534.502 238.872 C 533.882 238.872 533.262 238.369 533.262 237.671 C 533.262 237.089 533.494 236.779 533.843 236.507 C 534.115 236.314 536.48 234.879 539.542 234.879 C 543.226 234.879 545.745 237.205 545.745 239.997 Z M 550.786 241.741 C 550.786 235.732 554.004 234.879 557.144 234.879 C 558.462 234.879 559.664 235.422 560.013 235.616 C 560.362 235.81 560.633 236.197 560.633 236.74 C 560.633 237.515 560.052 237.981 559.393 237.981 C 559.16 237.981 558.966 237.903 558.811 237.826 C 558.54 237.671 557.881 237.36 557.028 237.36 C 555.322 237.36 553.345 237.903 553.345 241.741 L 553.345 250.542 L 557.919 250.542 C 558.656 250.542 559.199 251.085 559.199 251.822 C 559.199 252.558 558.656 253.024 557.919 253.024 L 553.345 253.024 L 553.345 257.056 C 553.345 257.792 552.802 258.335 552.065 258.335 C 551.328 258.335 550.786 257.792 550.786 257.056 L 550.786 253.024 L 548.847 253.024 C 548.111 253.024 547.568 252.558 547.568 251.822 C 547.568 251.085 548.111 250.542 548.847 250.542 L 550.786 250.542 Z M 570.868 235.112 C 573.233 235.112 580.018 235.267 580.018 242.051 C 580.018 245.308 578.235 247.402 576.102 248.061 C 576.568 248.255 578.933 250.348 578.933 253.295 C 578.933 259.963 573.195 260.041 570.868 260.041 L 566.139 260.041 C 565.402 260.041 564.898 259.576 564.898 258.839 L 564.898 236.391 C 564.898 235.655 565.441 235.112 566.177 235.112 Z M 567.457 248.953 L 567.457 257.56 L 570.752 257.56 C 572.458 257.56 576.296 257.482 576.296 253.295 C 576.296 250.348 573.699 249.224 573.001 248.914 C 572.419 248.953 572.031 248.953 571.527 248.953 Z M 567.457 237.593 L 567.457 246.471 L 571.876 246.471 C 575.521 246.471 577.382 244.998 577.382 242.051 C 577.382 237.748 572.613 237.593 570.868 237.593 Z M 594.44 245.812 L 591.378 245.812 C 586.454 245.812 583.856 243.99 583.856 240.384 C 583.856 236.546 587.152 234.879 590.215 234.879 C 592.463 234.879 594.169 235.732 595.061 236.469 C 595.681 235.189 596.999 235.112 597.232 235.112 C 597.93 235.112 598.473 235.577 598.473 236.352 C 598.473 236.973 598.008 237.438 597.387 237.709 C 597.116 237.826 596.999 238.097 596.999 239.183 L 596.999 247.751 C 596.999 250.116 595.255 253.256 590.835 253.256 C 588.509 253.256 586.183 252.403 585.291 251.822 C 584.864 251.55 584.748 251.124 584.748 250.814 C 584.748 250.193 585.213 249.573 585.989 249.573 C 586.338 249.573 586.493 249.651 586.687 249.767 C 587.54 250.232 588.78 250.775 590.835 250.775 C 593.471 250.775 594.44 248.953 594.44 247.751 Z M 594.44 238.679 C 594.053 238.175 592.231 237.36 590.215 237.36 C 588.392 237.36 586.493 238.33 586.493 240.384 C 586.493 242.4 588.082 243.37 591.378 243.37 L 594.44 243.37 Z M 613.632 236.391 C 613.632 235.655 614.175 235.112 614.911 235.112 C 615.648 235.112 616.191 235.655 616.191 236.391 L 616.191 246.665 C 616.191 251.318 614.369 253.256 609.871 253.256 C 607.39 253.256 605.607 252.171 605.141 251.899 C 605.141 252.52 604.676 253.024 603.939 253.024 C 603.203 253.024 602.737 252.52 602.737 251.783 L 602.737 236.391 C 602.737 235.655 603.28 235.112 604.017 235.112 C 604.753 235.112 605.296 235.655 605.296 236.391 L 605.296 249.728 C 605.723 249.961 607.39 250.775 609.328 250.775 C 612.585 250.775 613.632 249.844 613.632 246.277 Z M 635.111 237.089 C 632.125 241.547 629.217 244.067 627.55 245.231 L 633.25 250.852 C 633.56 251.163 633.637 251.473 633.637 251.783 C 633.637 252.442 633.095 253.024 632.358 253.024 C 632.009 253.024 631.699 252.946 631.389 252.636 L 625.03 246.239 L 624.565 246.239 L 624.565 260.506 C 624.565 261.243 624.022 261.785 623.324 261.785 C 622.549 261.785 622.006 261.243 622.006 260.506 L 622.006 236.391 C 622.006 235.655 622.549 235.112 623.324 235.112 C 624.022 235.112 624.565 235.655 624.565 236.391 L 624.565 243.757 L 625.379 243.757 C 626.348 243.176 629.683 240.539 633.095 235.655 C 633.327 235.306 633.637 235.112 634.064 235.112 C 634.8 235.112 635.343 235.693 635.343 236.352 C 635.343 236.585 635.266 236.857 635.111 237.089 " fill="#0f2c65"/>
</g>
</g>
</g>
</svg>
